# xmcd CD database file generated by OrangeCD 6.0
#
# Track frame offsets:
#	150
#	8174
#	18818
#	32505
#	49926
#	60456
#	74264
#	84731
#	95686
#	109907
#	123148
#	133861
#	146430
#	159018
#
# Disc length: 2360 seconds
#
# Revision: 0
# Processed by: cddbd v1.5.2PL0 Copyright (c) Steve Scherf et al.
# Submitted via: OrangeCD 6.0
#
DISCID=af09360e
DTITLE=The Kactus Boys - The Kactus Boys
DYEAR=2006
DGENRE=Bluegrass
TTITLE0=Cripple Creek
TTITLE1=My Sweet Blue Eyed Darlin'
TTITLE2=Last Hurrahs
TTITLE3=Long Black Veil
TTITLE4=Cherokee Shuffle
TTITLE5=Crazy Heart
TTITLE6=Your Love Is Like A Flower
TTITLE7=October Rain
TTITLE8=Love You (Again)
TTITLE9=Rollin' In My Sweet Baby's Arms
TTITLE10=Ground Speed
TTITLE11=Blue Ridge Valentine
TTITLE12=Ain't Nobody Gonna Miss Me When I'm Gone
TTITLE13=Who Will Sing For Me
EXTD=
EXTT0=
EXTT1=
EXTT2=
EXTT3=
EXTT4=
EXTT5=
EXTT6=
EXTT7=
EXTT8=
EXTT9=
EXTT10=
EXTT11=
EXTT12=
EXTT13=
PLAYORDER=
